{
  "asset": {
    "generator": "glTF-Transform v4.2.1",
    "version": "2.0"
  },
  "accessors": [
    {
      "type": "VEC3",
      "componentType": 5126,
      "count": 64,
      "max": [
        1,
        1,
        1
      ],
      "min": [
        -1,
        -1,
        -1
      ],
      "bufferView": 0,
      "byteOffset": 0
    },
    {
      "type": "VEC3",
      "componentType": 5126,
      "count": 64,
      "bufferView": 0,
      "byteOffset": 12
    },
    {
      "type": "VEC2",
      "componentType": 5126,
      "count": 64,
      "bufferView": 0,
      "byteOffset": 24
    },
    {
      "type": "SCALAR",
      "componentType": 5123,
      "count": 96,
      "bufferView": 1,
      "byteOffset": 0
    },
    {
      "type": "SCALAR",
      "componentType": 5123,
      "count": 216,
      "bufferView": 1,
      "byteOffset": 192
    },
    {
      "type": "VEC3",
      "componentType": 5126,
      "count": 144,
      "max": [
        2.000000238418579,
        4.666666030883789,
        3.000000476837158
      ],
      "min": [
        -1.9999998807907104,
        -3.999999761581421,
        -2.999999523162842
      ],
      "bufferView": 2,
      "byteOffset": 0
    },
    {
      "type": "VEC3",
      "componentType": 5126,
      "count": 144,
      "bufferView": 2,
      "byteOffset": 12
    },
    {
      "type": "VEC2",
      "componentType": 5126,
      "count": 144,
      "bufferView": 2,
      "byteOffset": 24
    }
  ],
  "bufferViews": [
    {
      "buffer": 0,
      "byteOffset": 0,
      "byteLength": 2048,
      "byteStride": 32,
      "target": 34962
    },
    {
      "buffer": 0,
      "byteOffset": 2048,
      "byteLength": 624,
      "target": 34963
    },
    {
      "buffer": 0,
      "byteOffset": 2672,
      "byteLength": 4608,
      "byteStride": 32,
      "target": 34962
    }
  ],
  "samplers": [
    {
      "magFilter": 9728,
      "minFilter": 9984,
      "wrapS": 10497,
      "wrapT": 10497
    }
  ],
  "textures": [
    {
      "source": 0,
      "sampler": 0
    },
    {
      "source": 1,
      "sampler": 0
    }
  ],
  "images": [
    {
      "mimeType": "image/png",
      "uri": "baseColor_1.png"
    },
    {
      "mimeType": "image/png",
      "uri": "baseColor_2.png"
    }
  ],
  "buffers": [
    {
      "uri": "buffer.bin",
      "byteLength": 7280
    }
  ],
  "materials": [
    {
      "name": "brick",
      "doubleSided": true,
      "pbrMetallicRoughness": {
        "roughnessFactor": 0.5,
        "metallicFactor": 0,
        "baseColorTexture": {
          "index": 0
        }
      }
    },
    {
      "name": "Material",
      "doubleSided": true,
      "pbrMetallicRoughness": {
        "roughnessFactor": 0.4000000059604645,
        "metallicFactor": 0,
        "baseColorTexture": {
          "index": 1
        }
      }
    }
  ],
  "meshes": [
    {
      "primitives": [
        {
          "attributes": {
            "POSITION": 0,
            "NORMAL": 1,
            "TEXCOORD_0": 2
          },
          "mode": 4,
          "material": 0,
          "indices": 3
        }
      ]
    },
    {
      "primitives": [
        {
          "attributes": {
            "POSITION": 5,
            "NORMAL": 6,
            "TEXCOORD_0": 7
          },
          "mode": 4,
          "material": 1,
          "indices": 4
        }
      ]
    }
  ],
  "nodes": [
    {
      "name": "Scene",
      "children": [
        1,
        2,
        3,
        4
      ]
    },
    {
      "name": "Light",
      "extras": {
        "name": "Light"
      },
      "translation": [
        -2.917776584625244,
        5.892947196960449,
        3.973433494567871
      ],
      "rotation": [
        0.03240362862451524,
        0.8077186931360923,
        0.4221270672249046,
        0.4103038590170546
      ]
    },
    {
      "name": "Camera",
      "extras": {
        "name": "Camera"
      },
      "translation": [
        7.358891487121582,
        4.958309173583984,
        6.925790786743164
      ],
      "rotation": [
        0.48353603845108717,
        0.33687159834106334,
        -0.20870360929099993,
        0.7804826919356966
      ]
    },
    {
      "name": "Cube",
      "extras": {
        "name": "Cube"
      },
      "translation": [
        0,
        -1.8000003099441528,
        0
      ],
      "scale": [
        1.600000023841858,
        0.800000011920929,
        1.600000023841858
      ],
      "mesh": 0
    },
    {
      "name": "Creeper",
      "extras": {
        "name": "Creeper"
      },
      "scale": [
        0.16540735960006714,
        0.2481110692024231,
        0.16540735960006714
      ],
      "mesh": 1
    }
  ],
  "scenes": [
    {
      "name": "AuxScene",
      "nodes": [
        0
      ]
    }
  ],
  "scene": 0
}